<svg xmlns="http://www.w3.org/2000/svg" width="260" height="260" viewBox="0 0 260 260">
  <g id="Group_1" data-name="Group 1" transform="translate(-58 -287)">
    <rect id="Rectangle_1" data-name="Rectangle 1" width="260" height="260" transform="translate(58 287)" fill="#212121"/>
    <path id="Path_1" data-name="Path 1" d="M52.665,25.641H64.044L34.783-21.269,63.231-55.407H51.5L27.584-26.61,16.9-13.141h-.348V-55.407H6.8V25.641h9.754V-.369l11.611-13.7Zm69.668,0h11.379l-29.261-46.91L132.9-55.407H121.172L97.253-26.61,86.57-13.141h-.348V-55.407H76.468V25.641h9.754V-.369l11.611-13.7Zm75.009,9.754H178.648V26.337c16.488-3.251,24.152-18,24.152-41.22,0-26.474-9.986-41.917-31.7-41.917s-31.7,15.443-31.7,41.917c0,23.223,7.664,37.969,24.152,41.22V31.1c0,10.1,4.761,16.72,17.3,16.72h16.488ZM171.1,12.984c-9.87,0-13.121-7.78-13.121-20.784V-21.966c0-13,3.251-20.784,13.121-20.784s13.121,7.78,13.121,20.784v14.05C184.222,5.2,180.971,12.984,171.1,12.984Z" transform="translate(83.2 432.8)" fill="#fff"/>
  </g>
</svg>
